<svg width="799" height="220" viewBox="0 0 799 220" fill="none" xmlns="http://www.w3.org/2000/svg">
<rect width="798.443" height="219.52" fill="#B0F6EA"/>
<path d="M352.443 65.0239V82.5599H315.835V101.504H343.227V118.528H315.835V154.88H293.947V65.0239H352.443Z" fill="#00AE9D"/>
<path d="M272.964 65.0239V154.88H251.076V65.0239H272.964Z" fill="#00AE9D"/>
<path d="M234.971 65.0239V82.5599H211.163V154.88H189.275V82.5599H165.467V65.0239H234.971Z" fill="#003247"/>
<path d="M127.36 93.44C125.739 90.4533 123.392 88.192 120.32 86.656C117.333 85.0347 113.792 84.224 109.696 84.224C102.613 84.224 96.9387 86.5707 92.672 91.264C88.4053 95.872 86.272 102.059 86.272 109.824C86.272 118.101 88.4907 124.587 92.928 129.28C97.4507 133.888 103.637 136.192 111.488 136.192C116.864 136.192 121.387 134.827 125.056 132.096C128.811 129.365 131.541 125.44 133.248 120.32H105.472V104.192H153.088V124.544C151.467 130.005 148.693 135.083 144.768 139.776C140.928 144.469 136.021 148.267 130.048 151.168C124.075 154.069 117.333 155.52 109.824 155.52C100.949 155.52 93.0133 153.6 86.016 149.76C79.104 145.835 73.6853 140.416 69.76 133.504C65.92 126.592 64 118.699 64 109.824C64 100.949 65.92 93.056 69.76 86.144C73.6853 79.1467 79.104 73.728 86.016 69.888C92.928 65.9627 100.821 64 109.696 64C120.448 64 129.493 66.6027 136.832 71.808C144.256 77.0133 149.163 84.224 151.552 93.44H127.36Z" fill="#003247"/>
<line x1="376.943" y1="64.52" x2="376.943" y2="155.52" stroke="#00AE9D"/>
<path d="M732.27 102.981H727.341L716.179 86.1163V102.981H711.25V78.3704H716.179L727.341 95.2705V78.3704H732.27V102.981Z" fill="#003247"/>
<path d="M694.661 103.228C692.361 103.228 690.248 102.688 688.324 101.609C686.399 100.529 684.873 99.0383 683.747 97.1371C682.62 95.2123 682.057 93.0411 682.057 90.6234C682.057 88.2293 682.62 86.0815 683.747 84.1803C684.873 82.2555 686.399 80.7533 688.324 79.6736C690.248 78.5938 692.361 78.054 694.661 78.054C696.985 78.054 699.098 78.5938 700.999 79.6736C702.924 80.7533 704.438 82.2555 705.541 84.1803C706.667 86.0815 707.231 88.2293 707.231 90.6234C707.231 93.0411 706.667 95.2123 705.541 97.1371C704.438 99.0383 702.924 100.529 700.999 101.609C699.074 102.688 696.962 103.228 694.661 103.228ZM694.661 98.8271C696.14 98.8271 697.443 98.4985 698.569 97.8412C699.696 97.1605 700.576 96.1982 701.21 94.9541C701.844 93.7101 702.161 92.2665 702.161 90.6234C702.161 88.9804 701.844 87.5486 701.21 86.328C700.576 85.084 699.696 84.1333 698.569 83.4761C697.443 82.8189 696.14 82.4902 694.661 82.4902C693.182 82.4902 691.868 82.8189 690.718 83.4761C689.591 84.1333 688.711 85.084 688.077 86.328C687.443 87.5486 687.127 88.9804 687.127 90.6234C687.127 92.2665 687.443 93.7101 688.077 94.9541C688.711 96.1982 689.591 97.1605 690.718 97.8412C691.868 98.4985 693.182 98.8271 694.661 98.8271Z" fill="#003247"/>
<path d="M678.032 78.4058V102.981H673.103V78.4058H678.032Z" fill="#003247"/>
<path d="M669.153 78.4058V82.3843H662.604V102.981H657.675V82.3843H651.126V78.4058H669.153Z" fill="#003247"/>
<path d="M647.208 78.4058V102.981H642.279V78.4058H647.208Z" fill="#003247"/>
<path d="M628.955 103.228C627.242 103.228 625.693 102.935 624.308 102.348C622.946 101.761 621.867 100.916 621.069 99.8129C620.271 98.7097 619.86 97.407 619.836 95.9047H625.118C625.188 96.9141 625.54 97.7121 626.174 98.2989C626.831 98.8857 627.723 99.1792 628.85 99.1792C630 99.1792 630.904 98.9092 631.561 98.3694C632.218 97.806 632.547 97.0784 632.547 96.1864C632.547 95.4588 632.324 94.8602 631.878 94.3908C631.432 93.9213 630.868 93.5575 630.188 93.2993C629.53 93.0176 628.615 92.7125 627.441 92.3839C625.845 91.9144 624.543 91.4567 623.533 91.0107C622.547 90.5413 621.691 89.8489 620.963 88.9334C620.259 87.9945 619.907 86.7505 619.907 85.2013C619.907 83.746 620.271 82.4785 620.998 81.3988C621.726 80.319 622.747 79.4975 624.061 78.9342C625.376 78.3474 626.878 78.054 628.568 78.054C631.103 78.054 633.157 78.676 634.73 79.92C636.326 81.1406 637.206 82.8541 637.37 85.0605H631.948C631.901 84.2155 631.537 83.523 630.857 82.9832C630.199 82.4198 629.319 82.1382 628.216 82.1382C627.254 82.1382 626.479 82.3846 625.892 82.8775C625.329 83.3705 625.047 84.0864 625.047 85.0253C625.047 85.6825 625.258 86.2341 625.681 86.6801C626.127 87.1026 626.667 87.4547 627.301 87.7363C627.958 87.9945 628.873 88.2997 630.047 88.6518C631.643 89.1212 632.946 89.5907 633.955 90.0601C634.964 90.5296 635.833 91.2337 636.56 92.1726C637.288 93.1115 637.652 94.3438 637.652 95.8695C637.652 97.184 637.312 98.4046 636.631 99.5312C635.95 100.658 634.953 101.562 633.638 102.242C632.324 102.9 630.763 103.228 628.955 103.228Z" fill="#003247"/>
<path d="M615.247 102.981H610.318L599.157 86.1163V102.981H594.228V78.3704H599.157L610.318 95.2705V78.3704H615.247V102.981Z" fill="#003247"/>
<path d="M583.741 98.2985H573.953L572.334 102.981H567.158L575.995 78.3704H581.734L590.572 102.981H585.361L583.741 98.2985ZM582.403 94.3551L578.847 84.0742L575.291 94.3551H582.403Z" fill="#003247"/>
<path d="M558.44 102.981L553.017 93.4047H550.694V102.981H545.764V78.4058H554.989C556.89 78.4058 558.51 78.7461 559.848 79.4268C561.186 80.084 562.183 80.9877 562.841 82.1379C563.521 83.2646 563.862 84.5321 563.862 85.9404C563.862 87.56 563.392 89.027 562.453 90.3415C561.514 91.6325 560.118 92.5244 558.263 93.0174L564.143 102.981H558.44ZM550.694 89.7077H554.813C556.151 89.7077 557.149 89.3909 557.806 88.7571C558.463 88.0999 558.792 87.1962 558.792 86.046C558.792 84.9194 558.463 84.0509 557.806 83.4406C557.149 82.8068 556.151 82.49 554.813 82.49H550.694V89.7077Z" fill="#003247"/>
<path d="M541.816 78.4058V82.3843H535.267V102.981H530.338V82.3843H523.789V78.4058H541.816Z" fill="#003247"/>
<path d="M511.127 102.981H506.198L495.037 86.1163V102.981H490.108V78.3704H495.037L506.198 95.2705V78.3704H511.127V102.981Z" fill="#003247"/>
<path d="M475.946 82.3842V88.5457H484.22V92.4538H475.946V98.9674H485.276V102.981H471.016V78.3704H485.276V82.3842H475.946Z" fill="#003247"/>
<path d="M456.856 82.3842V88.5457H465.13V92.4538H456.856V98.9674H466.186V102.981H451.927V78.3704H466.186V82.3842H456.856Z" fill="#003247"/>
<path d="M441.693 102.981L436.271 93.4047H433.947V102.981H429.018V78.4058H438.242C440.144 78.4058 441.763 78.7461 443.101 79.4268C444.439 80.084 445.437 80.9877 446.094 82.1379C446.775 83.2646 447.115 84.5321 447.115 85.9404C447.115 87.56 446.646 89.027 445.707 90.3415C444.768 91.6325 443.371 92.5244 441.517 93.0174L447.397 102.981H441.693ZM433.947 89.7077H438.066C439.404 89.7077 440.402 89.3909 441.059 88.7571C441.716 88.0999 442.045 87.1962 442.045 86.046C442.045 84.9194 441.716 84.0509 441.059 83.4406C440.402 82.8068 439.404 82.49 438.066 82.49H433.947V89.7077Z" fill="#003247"/>
<path d="M418.752 85.8001C418.188 84.7673 417.414 83.9809 416.428 83.4411C415.442 82.9012 414.292 82.6313 412.978 82.6313C411.522 82.6313 410.231 82.9599 409.105 83.6171C407.978 84.2743 407.098 85.2132 406.464 86.4338C405.83 87.6544 405.513 89.0627 405.513 90.6588C405.513 92.3019 405.83 93.7337 406.464 94.9543C407.121 96.1749 408.025 97.1138 409.175 97.771C410.325 98.4282 411.663 98.7568 413.189 98.7568C415.067 98.7568 416.604 98.2639 417.801 97.2781C418.998 96.2688 419.785 94.8722 420.16 93.0882H411.71V89.3209H425.019V93.6164C424.69 95.3299 423.986 96.9143 422.906 98.3695C421.827 99.8248 420.43 100.998 418.717 101.89C417.027 102.759 415.125 103.193 413.013 103.193C410.642 103.193 408.494 102.665 406.57 101.609C404.668 100.529 403.166 99.0385 402.063 97.1372C400.983 95.236 400.443 93.0765 400.443 90.6588C400.443 88.2412 400.983 86.0817 402.063 84.1805C403.166 82.2557 404.668 80.7652 406.57 79.709C408.494 78.6292 410.63 78.0894 412.978 78.0894C415.747 78.0894 418.153 78.7701 420.195 80.1315C422.237 81.4694 423.646 83.3589 424.42 85.8001H418.752Z" fill="#003247"/>
<path d="M727.52 141.986C726.244 141.986 725.089 141.767 724.057 141.33C723.043 140.893 722.239 140.263 721.644 139.441C721.049 138.619 720.743 137.649 720.726 136.529H724.661C724.713 137.281 724.976 137.876 725.448 138.313C725.938 138.75 726.602 138.969 727.442 138.969C728.299 138.969 728.972 138.768 729.462 138.366C729.952 137.946 730.196 137.404 730.196 136.739C730.196 136.197 730.03 135.751 729.698 135.401C729.366 135.051 728.946 134.78 728.439 134.588C727.949 134.378 727.267 134.151 726.392 133.906C725.203 133.556 724.232 133.215 723.48 132.883C722.746 132.533 722.107 132.017 721.565 131.335C721.041 130.635 720.778 129.708 720.778 128.554C720.778 127.47 721.049 126.525 721.591 125.721C722.134 124.916 722.894 124.304 723.874 123.884C724.853 123.447 725.973 123.228 727.232 123.228C729.121 123.228 730.651 123.692 731.823 124.619C733.012 125.528 733.668 126.805 733.791 128.449H729.75C729.715 127.819 729.444 127.303 728.937 126.901C728.447 126.481 727.792 126.271 726.97 126.271C726.252 126.271 725.675 126.455 725.238 126.822C724.818 127.19 724.608 127.723 724.608 128.423C724.608 128.912 724.766 129.323 725.081 129.656C725.413 129.971 725.815 130.233 726.287 130.443C726.777 130.635 727.459 130.863 728.334 131.125C729.523 131.475 730.494 131.824 731.246 132.174C731.998 132.524 732.645 133.049 733.187 133.748C733.729 134.448 734 135.366 734 136.503C734 137.482 733.747 138.392 733.24 139.231C732.732 140.071 731.989 140.744 731.01 141.251C730.03 141.741 728.867 141.986 727.52 141.986Z" fill="#00AE9D"/>
<path d="M710.645 126.455V131.046H716.81V133.958H710.645V138.811H717.597V141.802H706.972V123.464H717.597V126.455H710.645Z" fill="#00AE9D"/>
<path d="M703.08 123.492V141.803H699.408V123.492H703.08Z" fill="#00AE9D"/>
<path d="M691.784 141.803L687.744 134.668H686.013V141.803H682.34V123.492H689.213C690.63 123.492 691.837 123.745 692.834 124.253C693.831 124.742 694.574 125.416 695.064 126.273C695.571 127.112 695.824 128.057 695.824 129.106C695.824 130.313 695.475 131.406 694.775 132.385C694.075 133.347 693.035 134.012 691.653 134.379L696.034 141.803H691.784ZM686.013 131.913H689.082C690.079 131.913 690.822 131.677 691.312 131.205C691.802 130.715 692.047 130.042 692.047 129.185C692.047 128.345 691.802 127.698 691.312 127.243C690.822 126.771 690.079 126.535 689.082 126.535H686.013V131.913Z" fill="#00AE9D"/>
<path d="M669.976 141.986C668.262 141.986 666.688 141.584 665.254 140.779C663.82 139.975 662.683 138.864 661.844 137.447C661.004 136.013 660.584 134.395 660.584 132.594C660.584 130.81 661.004 129.21 661.844 127.793C662.683 126.359 663.82 125.24 665.254 124.435C666.688 123.631 668.262 123.228 669.976 123.228C671.708 123.228 673.282 123.631 674.699 124.435C676.133 125.24 677.261 126.359 678.083 127.793C678.922 129.21 679.342 130.81 679.342 132.594C679.342 134.395 678.922 136.013 678.083 137.447C677.261 138.864 676.133 139.975 674.699 140.779C673.265 141.584 671.69 141.986 669.976 141.986ZM669.976 138.707C671.078 138.707 672.049 138.462 672.888 137.972C673.728 137.465 674.384 136.748 674.856 135.821C675.328 134.894 675.564 133.818 675.564 132.594C675.564 131.37 675.328 130.303 674.856 129.393C674.384 128.466 673.728 127.758 672.888 127.268C672.049 126.779 671.078 126.534 669.976 126.534C668.875 126.534 667.895 126.779 667.038 127.268C666.199 127.758 665.543 128.466 665.071 129.393C664.598 130.303 664.362 131.37 664.362 132.594C664.362 133.818 664.598 134.894 665.071 135.821C665.543 136.748 666.199 137.465 667.038 137.972C667.895 138.462 668.875 138.707 669.976 138.707Z" fill="#00AE9D"/>
<path d="M658.534 123.492V126.456H653.654V141.803H649.981V126.456H645.101V123.492H658.534Z" fill="#00AE9D"/>
<path d="M624.784 132.62C624.784 130.819 625.187 129.21 625.991 127.793C626.813 126.359 627.924 125.248 629.323 124.461C630.74 123.657 632.322 123.254 634.071 123.254C636.118 123.254 637.91 123.779 639.449 124.828C640.989 125.878 642.064 127.329 642.676 129.183H638.453C638.033 128.309 637.438 127.653 636.669 127.216C635.917 126.779 635.042 126.56 634.045 126.56C632.978 126.56 632.025 126.814 631.186 127.321C630.364 127.81 629.716 128.51 629.244 129.42C628.789 130.329 628.562 131.396 628.562 132.62C628.562 133.827 628.789 134.894 629.244 135.821C629.716 136.73 630.364 137.439 631.186 137.946C632.025 138.435 632.978 138.68 634.045 138.68C635.042 138.68 635.917 138.462 636.669 138.024C637.438 137.57 638.033 136.905 638.453 136.031H642.676C642.064 137.902 640.989 139.362 639.449 140.412C637.928 141.444 636.135 141.96 634.071 141.96C632.322 141.96 630.74 141.566 629.323 140.779C627.924 139.975 626.813 138.864 625.991 137.447C625.187 136.031 624.784 134.422 624.784 132.62Z" fill="#00AE9D"/>
<path d="M617.863 138.313H610.57L609.363 141.802H605.507L612.092 123.464H616.368L622.953 141.802H619.07L617.863 138.313ZM616.866 135.374L614.217 127.714L611.567 135.374H616.866Z" fill="#00AE9D"/>
<path d="M603.767 123.492V126.456H596.133V131.152H601.983V134.064H596.133V141.803H592.46V123.492H603.767Z" fill="#00AE9D"/>
<path d="M582.056 141.802H578.383L570.067 129.235V141.802H566.394V123.464H570.067L578.383 136.056V123.464H582.056V141.802Z" fill="#00AE9D"/>
<path d="M554.032 141.986C552.318 141.986 550.744 141.584 549.31 140.779C547.876 139.975 546.739 138.864 545.899 137.447C545.06 136.013 544.64 134.395 544.64 132.594C544.64 130.81 545.06 129.21 545.899 127.793C546.739 126.359 547.876 125.24 549.31 124.435C550.744 123.631 552.318 123.228 554.032 123.228C555.764 123.228 557.338 123.631 558.754 124.435C560.189 125.24 561.317 126.359 562.139 127.793C562.978 129.21 563.398 130.81 563.398 132.594C563.398 134.395 562.978 136.013 562.139 137.447C561.317 138.864 560.189 139.975 558.754 140.779C557.32 141.584 555.746 141.986 554.032 141.986ZM554.032 138.707C555.134 138.707 556.105 138.462 556.944 137.972C557.784 137.465 558.44 136.748 558.912 135.821C559.384 134.894 559.62 133.818 559.62 132.594C559.62 131.37 559.384 130.303 558.912 129.393C558.44 128.466 557.784 127.758 556.944 127.268C556.105 126.779 555.134 126.534 554.032 126.534C552.93 126.534 551.951 126.779 551.094 127.268C550.254 127.758 549.599 128.466 549.126 129.393C548.654 130.303 548.418 131.37 548.418 132.594C548.418 133.818 548.654 134.894 549.126 135.821C549.599 136.748 550.254 137.465 551.094 137.972C551.951 138.462 552.93 138.707 554.032 138.707Z" fill="#00AE9D"/>
<path d="M541.639 123.492V141.803H537.966V123.492H541.639Z" fill="#00AE9D"/>
<path d="M535.026 123.492V126.456H530.147V141.803H526.474V126.456H521.594V123.492H535.026Z" fill="#00AE9D"/>
<path d="M514.75 138.313H507.457L506.25 141.802H502.394L508.979 123.464H513.255L519.84 141.802H515.957L514.75 138.313ZM513.753 135.374L511.104 127.714L508.454 135.374H513.753Z" fill="#00AE9D"/>
<path d="M499.631 123.492V141.803H495.958V129.893L491.052 141.803H488.271L483.339 129.893V141.803H479.666V123.492H483.838L489.662 137.107L495.486 123.492H499.631Z" fill="#00AE9D"/>
<path d="M472.04 141.803L468 134.668H466.269V141.803H462.596V123.492H469.469C470.886 123.492 472.093 123.745 473.09 124.253C474.086 124.742 474.83 125.416 475.319 126.273C475.827 127.112 476.08 128.057 476.08 129.106C476.08 130.313 475.73 131.406 475.031 132.385C474.331 133.347 473.291 134.012 471.909 134.379L476.29 141.803H472.04ZM466.269 131.913H469.338C470.335 131.913 471.078 131.677 471.568 131.205C472.058 130.715 472.302 130.042 472.302 129.185C472.302 128.345 472.058 127.698 471.568 127.243C471.078 126.771 470.335 126.535 469.338 126.535H466.269V131.913Z" fill="#00AE9D"/>
<path d="M450.234 141.986C448.52 141.986 446.946 141.584 445.512 140.779C444.077 139.975 442.941 138.864 442.101 137.447C441.262 136.013 440.842 134.395 440.842 132.594C440.842 130.81 441.262 129.21 442.101 127.793C442.941 126.359 444.077 125.24 445.512 124.435C446.946 123.631 448.52 123.228 450.234 123.228C451.965 123.228 453.539 123.631 454.956 124.435C456.39 125.24 457.518 126.359 458.34 127.793C459.18 129.21 459.599 130.81 459.599 132.594C459.599 134.395 459.18 136.013 458.34 137.447C457.518 138.864 456.39 139.975 454.956 140.779C453.522 141.584 451.948 141.986 450.234 141.986ZM450.234 138.707C451.336 138.707 452.306 138.462 453.146 137.972C453.985 137.465 454.641 136.748 455.113 135.821C455.586 134.894 455.822 133.818 455.822 132.594C455.822 131.37 455.586 130.303 455.113 129.393C454.641 128.466 453.985 127.758 453.146 127.268C452.306 126.779 451.336 126.534 450.234 126.534C449.132 126.534 448.152 126.779 447.295 127.268C446.456 127.758 445.8 128.466 445.328 129.393C444.856 130.303 444.62 131.37 444.62 132.594C444.62 133.818 444.856 134.894 445.328 135.821C445.8 136.748 446.456 137.465 447.295 137.972C448.152 138.462 449.132 138.707 450.234 138.707Z" fill="#00AE9D"/>
<path d="M438.87 123.492V126.456H431.235V131.152H437.086V134.064H431.235V141.803H427.562V123.492H438.87Z" fill="#00AE9D"/>
<path d="M423.67 141.802H419.997L411.681 129.235V141.802H408.008V123.464H411.681L419.997 136.056V123.464H423.67V141.802Z" fill="#00AE9D"/>
<path d="M404.116 123.492V141.803H400.443V123.492H404.116Z" fill="#00AE9D"/>
</svg>
