<svg width="394" height="393" viewBox="0 0 394 393" fill="none" xmlns="http://www.w3.org/2000/svg">
<rect x="0.443359" width="393" height="393" rx="8" fill="#00AE9D"/>
<path d="M341.165 54.0239V71.5599H304.557V90.5039H331.949V107.528H304.557V143.88H282.669V54.0239H341.165Z" fill="#B0F6EA"/>
<path d="M261.686 54.0239V143.88H239.798V54.0239H261.686Z" fill="#B0F6EA"/>
<path d="M223.692 54.0239V71.5599H199.884V143.88H177.996V71.5599H154.188V54.0239H223.692Z" fill="#003247"/>
<path d="M116.082 82.44C114.46 79.4533 112.114 77.192 109.042 75.656C106.055 74.0347 102.514 73.224 98.4177 73.224C91.335 73.224 85.6603 75.5707 81.3937 80.264C77.127 84.872 74.9937 91.0587 74.9937 98.824C74.9937 107.101 77.2123 113.587 81.6497 118.28C86.1723 122.888 92.359 125.192 100.21 125.192C105.586 125.192 110.108 123.827 113.778 121.096C117.532 118.365 120.263 114.44 121.97 109.32H94.1937V93.192H141.81V113.544C140.188 119.005 137.415 124.083 133.49 128.776C129.65 133.469 124.743 137.267 118.77 140.168C112.796 143.069 106.055 144.52 98.5457 144.52C89.671 144.52 81.735 142.6 74.7377 138.76C67.8257 134.835 62.407 129.416 58.4817 122.504C54.6417 115.592 52.7217 107.699 52.7217 98.824C52.7217 89.9493 54.6417 82.056 58.4817 75.144C62.407 68.1467 67.8257 62.728 74.7377 58.888C81.6497 54.9627 89.543 53 98.4177 53C109.17 53 118.215 55.6027 125.554 60.808C132.978 66.0133 137.884 73.224 140.274 82.44H116.082Z" fill="#003247"/>
<rect x="152.693" y="176.77" width="88.5" height="62.7889" rx="1.75" fill="white" stroke="#F5F5F5" stroke-width="0.5"/>
<mask id="mask0_0_432" style="mask-type:luminance" maskUnits="userSpaceOnUse" x="152" y="176" width="90" height="64">
<rect x="152.693" y="176.77" width="88.5" height="62.7889" rx="1.75" fill="white" stroke="white" stroke-width="0.5"/>
</mask>
<g mask="url(#mask0_0_432)">
<path fill-rule="evenodd" clip-rule="evenodd" d="M152.443 197.616H241.443V176.52H152.443V197.616Z" fill="#F64253"/>
<path fill-rule="evenodd" clip-rule="evenodd" d="M152.443 239.809H241.443V218.713H152.443V239.809Z" fill="#F64253"/>
</g>
<path d="M64.9879 296.314V304.539H76.0329V309.756H64.9879V318.451H77.4429V323.809H58.4079V290.956H77.4429V296.314H64.9879ZM127.744 291.003L118.579 323.809H110.824L104.667 300.45L98.2276 323.809L90.5196 323.856L81.6836 291.003H88.7336L94.5146 316.477L101.189 291.003H108.521L114.819 316.336L120.647 291.003H127.744ZM152.532 304.257V309.803H132.604V304.257H152.532ZM204.232 291.003L195.067 323.809H187.312L181.155 300.45L174.716 323.809L167.008 323.856L158.172 291.003H165.222L171.003 316.477L177.677 291.003H185.009L191.307 316.336L197.135 291.003H204.232ZM207.307 310.696C207.307 308.064 207.824 305.73 208.858 303.693C209.923 301.656 211.349 300.09 213.135 298.993C214.952 297.896 216.973 297.348 219.198 297.348C221.141 297.348 222.833 297.74 224.274 298.523C225.747 299.306 226.922 300.293 227.799 301.484V297.771H234.426V323.809H227.799V320.002C226.953 321.224 225.778 322.242 224.274 323.057C222.801 323.84 221.094 324.232 219.151 324.232C216.958 324.232 214.952 323.668 213.135 322.54C211.349 321.412 209.923 319.83 208.858 317.793C207.824 315.725 207.307 313.359 207.307 310.696ZM227.799 310.79C227.799 309.192 227.486 307.829 226.859 306.701C226.232 305.542 225.386 304.664 224.321 304.069C223.256 303.442 222.112 303.129 220.89 303.129C219.668 303.129 218.54 303.427 217.506 304.022C216.472 304.617 215.626 305.495 214.968 306.654C214.341 307.782 214.028 309.129 214.028 310.696C214.028 312.263 214.341 313.641 214.968 314.832C215.626 315.991 216.472 316.884 217.506 317.511C218.571 318.138 219.699 318.451 220.89 318.451C222.112 318.451 223.256 318.153 224.321 317.558C225.386 316.931 226.232 316.054 226.859 314.926C227.486 313.767 227.799 312.388 227.799 310.79ZM251.286 324.232C249.156 324.232 247.244 323.856 245.552 323.104C243.86 322.321 242.513 321.271 241.51 319.955C240.539 318.639 240.006 317.182 239.912 315.584H246.539C246.665 316.587 247.15 317.417 247.996 318.075C248.874 318.733 249.955 319.062 251.239 319.062C252.493 319.062 253.464 318.811 254.153 318.31C254.874 317.809 255.234 317.166 255.234 316.383C255.234 315.537 254.796 314.91 253.918 314.503C253.072 314.064 251.709 313.594 249.829 313.093C247.887 312.623 246.289 312.137 245.035 311.636C243.813 311.135 242.748 310.367 241.839 309.333C240.962 308.299 240.523 306.905 240.523 305.15C240.523 303.709 240.931 302.393 241.745 301.202C242.591 300.011 243.782 299.071 245.317 298.382C246.884 297.693 248.717 297.348 250.816 297.348C253.918 297.348 256.394 298.131 258.242 299.698C260.091 301.233 261.109 303.317 261.297 305.949H254.999C254.905 304.915 254.467 304.1 253.683 303.505C252.931 302.878 251.913 302.565 250.628 302.565C249.438 302.565 248.513 302.784 247.855 303.223C247.229 303.662 246.915 304.273 246.915 305.056C246.915 305.933 247.354 306.607 248.231 307.077C249.109 307.516 250.472 307.97 252.32 308.44C254.2 308.91 255.751 309.396 256.973 309.897C258.195 310.398 259.245 311.182 260.122 312.247C261.031 313.281 261.501 314.66 261.532 316.383C261.532 317.887 261.109 319.234 260.263 320.425C259.449 321.616 258.258 322.556 256.691 323.245C255.156 323.903 253.354 324.232 251.286 324.232ZM277.368 324.232C275.237 324.232 273.326 323.856 271.634 323.104C269.942 322.321 268.594 321.271 267.592 319.955C266.62 318.639 266.088 317.182 265.994 315.584H272.621C272.746 316.587 273.232 317.417 274.078 318.075C274.955 318.733 276.036 319.062 277.321 319.062C278.574 319.062 279.545 318.811 280.235 318.31C280.955 317.809 281.316 317.166 281.316 316.383C281.316 315.537 280.877 314.91 280 314.503C279.154 314.064 277.791 313.594 275.911 313.093C273.968 312.623 272.37 312.137 271.117 311.636C269.895 311.135 268.829 310.367 267.921 309.333C267.043 308.299 266.605 306.905 266.605 305.15C266.605 303.709 267.012 302.393 267.827 301.202C268.673 300.011 269.863 299.071 271.399 298.382C272.965 297.693 274.798 297.348 276.898 297.348C280 297.348 282.475 298.131 284.324 299.698C286.172 301.233 287.191 303.317 287.379 305.949H281.081C280.987 304.915 280.548 304.1 279.765 303.505C279.013 302.878 277.994 302.565 276.71 302.565C275.519 302.565 274.595 302.784 273.937 303.223C273.31 303.662 272.997 304.273 272.997 305.056C272.997 305.933 273.435 306.607 274.313 307.077C275.19 307.516 276.553 307.97 278.402 308.44C280.282 308.91 281.833 309.396 283.055 309.897C284.277 310.398 285.326 311.182 286.204 312.247C287.112 313.281 287.582 314.66 287.614 316.383C287.614 317.887 287.191 319.234 286.345 320.425C285.53 321.616 284.339 322.556 282.773 323.245C281.237 323.903 279.436 324.232 277.368 324.232ZM317.69 310.226C317.69 311.166 317.627 312.012 317.502 312.764H298.467C298.624 314.644 299.282 316.117 300.441 317.182C301.6 318.247 303.026 318.78 304.718 318.78C307.162 318.78 308.901 317.73 309.935 315.631H317.032C316.28 318.138 314.839 320.206 312.708 321.835C310.577 323.433 307.961 324.232 304.859 324.232C302.352 324.232 300.096 323.684 298.091 322.587C296.117 321.459 294.566 319.877 293.438 317.84C292.341 315.803 291.793 313.453 291.793 310.79C291.793 308.095 292.341 305.73 293.438 303.693C294.535 301.656 296.07 300.09 298.044 298.993C300.018 297.896 302.29 297.348 304.859 297.348C307.334 297.348 309.543 297.881 311.486 298.946C313.46 300.011 314.98 301.531 316.045 303.505C317.142 305.448 317.69 307.688 317.69 310.226ZM310.875 308.346C310.844 306.654 310.233 305.307 309.042 304.304C307.851 303.27 306.394 302.753 304.671 302.753C303.042 302.753 301.663 303.254 300.535 304.257C299.438 305.228 298.765 306.591 298.514 308.346H310.875ZM329.543 301.813C330.389 300.434 331.486 299.353 332.833 298.57C334.212 297.787 335.778 297.395 337.533 297.395V304.304H335.794C333.726 304.304 332.159 304.79 331.094 305.761C330.06 306.732 329.543 308.424 329.543 310.837V323.809H322.963V297.771H329.543V301.813Z" fill="#B0F6EA"/>
<line x1="124.443" y1="209" x2="52.4434" y2="209" stroke="#B0F6EA" stroke-width="2"/>
<line x1="341.443" y1="209" x2="269.443" y2="209" stroke="#B0F6EA" stroke-width="2"/>
</svg>
