<svg width="394" height="393" viewBox="0 0 394 393" fill="none" xmlns="http://www.w3.org/2000/svg">
<rect x="0.443237" width="393" height="393" rx="8" fill="#B0F6EA"/>
<path d="M341.165 54.0239V71.5599H304.557V90.5039H331.949V107.528H304.557V143.88H282.669V54.0239H341.165Z" fill="#00AE9D"/>
<path d="M261.686 54.0239V143.88H239.798V54.0239H261.686Z" fill="#00AE9D"/>
<path d="M223.692 54.0239V71.5599H199.884V143.88H177.996V71.5599H154.188V54.0239H223.692Z" fill="#003247"/>
<path d="M116.082 82.44C114.46 79.4533 112.114 77.192 109.042 75.656C106.055 74.0347 102.514 73.224 98.4177 73.224C91.335 73.224 85.6603 75.5707 81.3937 80.264C77.127 84.872 74.9937 91.0587 74.9937 98.824C74.9937 107.101 77.2123 113.587 81.6497 118.28C86.1723 122.888 92.359 125.192 100.21 125.192C105.586 125.192 110.108 123.827 113.778 121.096C117.532 118.365 120.263 114.44 121.97 109.32H94.1937V93.192H141.81V113.544C140.188 119.005 137.415 124.083 133.49 128.776C129.65 133.469 124.743 137.267 118.77 140.168C112.796 143.069 106.055 144.52 98.5457 144.52C89.671 144.52 81.735 142.6 74.7377 138.76C67.8257 134.835 62.407 129.416 58.4817 122.504C54.6417 115.592 52.7217 107.699 52.7217 98.824C52.7217 89.9493 54.6417 82.056 58.4817 75.144C62.407 68.1467 67.8257 62.728 74.7377 58.888C81.6497 54.9627 89.543 53 98.4177 53C109.17 53 118.215 55.6027 125.554 60.808C132.978 66.0133 137.884 73.224 140.274 82.44H116.082Z" fill="#003247"/>
<rect x="152.693" y="176.77" width="88.5" height="62.7889" rx="1.75" fill="white" stroke="#F5F5F5" stroke-width="0.5"/>
<mask id="mask0_0_340" style="mask-type:luminance" maskUnits="userSpaceOnUse" x="152" y="176" width="90" height="64">
<rect x="152.693" y="176.77" width="88.5" height="62.7889" rx="1.75" fill="white" stroke="white" stroke-width="0.5"/>
</mask>
<g mask="url(#mask0_0_340)">
<path fill-rule="evenodd" clip-rule="evenodd" d="M152.443 197.616H241.443V176.52H152.443V197.616Z" fill="#F64253"/>
<path fill-rule="evenodd" clip-rule="evenodd" d="M152.443 239.809H241.443V218.713H152.443V239.809Z" fill="#F64253"/>
</g>
<path d="M180.07 320.117C177.929 320.117 175.993 319.75 174.262 319.017C172.561 318.284 171.212 317.228 170.214 315.849C169.217 314.47 168.704 312.842 168.674 310.965H175.274C175.362 312.226 175.802 313.224 176.594 313.957C177.416 314.69 178.53 315.057 179.938 315.057C181.376 315.057 182.505 314.72 183.326 314.045C184.148 313.341 184.558 312.432 184.558 311.317C184.558 310.408 184.28 309.66 183.722 309.073C183.165 308.486 182.461 308.032 181.61 307.709C180.789 307.357 179.645 306.976 178.178 306.565C176.184 305.978 174.556 305.406 173.294 304.849C172.062 304.262 170.992 303.397 170.082 302.253C169.202 301.08 168.762 299.525 168.762 297.589C168.762 295.77 169.217 294.186 170.126 292.837C171.036 291.488 172.312 290.461 173.954 289.757C175.597 289.024 177.474 288.657 179.586 288.657C182.754 288.657 185.321 289.434 187.286 290.989C189.281 292.514 190.381 294.656 190.586 297.413H183.81C183.752 296.357 183.297 295.492 182.446 294.817C181.625 294.113 180.525 293.761 179.146 293.761C177.944 293.761 176.976 294.069 176.242 294.685C175.538 295.301 175.186 296.196 175.186 297.369C175.186 298.19 175.45 298.88 175.978 299.437C176.536 299.965 177.21 300.405 178.002 300.757C178.824 301.08 179.968 301.461 181.434 301.901C183.429 302.488 185.057 303.074 186.318 303.661C187.58 304.248 188.665 305.128 189.574 306.301C190.484 307.474 190.938 309.014 190.938 310.921C190.938 312.564 190.513 314.089 189.662 315.497C188.812 316.905 187.565 318.034 185.922 318.885C184.28 319.706 182.329 320.117 180.07 320.117ZM195.223 304.409C195.223 301.388 195.897 298.689 197.247 296.313C198.625 293.908 200.488 292.045 202.835 290.725C205.211 289.376 207.865 288.701 210.799 288.701C214.231 288.701 217.237 289.581 219.819 291.341C222.4 293.101 224.204 295.536 225.231 298.645H218.147C217.443 297.178 216.445 296.078 215.155 295.345C213.893 294.612 212.427 294.245 210.755 294.245C208.965 294.245 207.367 294.67 205.959 295.521C204.58 296.342 203.495 297.516 202.703 299.041C201.94 300.566 201.559 302.356 201.559 304.409C201.559 306.433 201.94 308.222 202.703 309.777C203.495 311.302 204.58 312.49 205.959 313.341C207.367 314.162 208.965 314.573 210.755 314.573C212.427 314.573 213.893 314.206 215.155 313.473C216.445 312.71 217.443 311.596 218.147 310.129H225.231C224.204 313.268 222.4 315.717 219.819 317.477C217.267 319.208 214.26 320.073 210.799 320.073C207.865 320.073 205.211 319.413 202.835 318.093C200.488 316.744 198.625 314.881 197.247 312.505C195.897 310.129 195.223 307.43 195.223 304.409Z" fill="#003247"/>
<line x1="124.443" y1="209" x2="52.4432" y2="209" stroke="#00AE9D" stroke-width="2"/>
<line x1="341.443" y1="209" x2="269.443" y2="209" stroke="#00AE9D" stroke-width="2"/>
</svg>
