<svg width="394" height="393" viewBox="0 0 394 393" fill="none" xmlns="http://www.w3.org/2000/svg">
<rect x="0.443237" width="393" height="393" rx="8" fill="#B0F6EA"/>
<path d="M341.165 54.0239V71.5599H304.557V90.5039H331.949V107.528H304.557V143.88H282.669V54.0239H341.165Z" fill="#00AE9D"/>
<path d="M261.686 54.0239V143.88H239.798V54.0239H261.686Z" fill="#00AE9D"/>
<path d="M223.692 54.0239V71.5599H199.884V143.88H177.996V71.5599H154.188V54.0239H223.692Z" fill="#003247"/>
<path d="M116.082 82.44C114.46 79.4533 112.114 77.192 109.042 75.656C106.055 74.0347 102.514 73.224 98.4176 73.224C91.335 73.224 85.6603 75.5707 81.3936 80.264C77.127 84.872 74.9936 91.0587 74.9936 98.824C74.9936 107.101 77.2123 113.587 81.6496 118.28C86.1723 122.888 92.359 125.192 100.21 125.192C105.586 125.192 110.108 123.827 113.778 121.096C117.532 118.365 120.263 114.44 121.97 109.32H94.1936V93.192H141.81V113.544C140.188 119.005 137.415 124.083 133.49 128.776C129.65 133.469 124.743 137.267 118.77 140.168C112.796 143.069 106.055 144.52 98.5456 144.52C89.671 144.52 81.735 142.6 74.7376 138.76C67.8256 134.835 62.407 129.416 58.4816 122.504C54.6416 115.592 52.7216 107.699 52.7216 98.824C52.7216 89.9493 54.6416 82.056 58.4816 75.144C62.407 68.1467 67.8256 62.728 74.7376 58.888C81.6496 54.9627 89.543 53 98.4176 53C109.17 53 118.215 55.6027 125.554 60.808C132.978 66.0133 137.884 73.224 140.274 82.44H116.082Z" fill="#003247"/>
<rect x="152.693" y="176.77" width="88.5" height="62.7889" rx="1.75" fill="white" stroke="#F5F5F5" stroke-width="0.5"/>
<mask id="mask0_0_329" style="mask-type:luminance" maskUnits="userSpaceOnUse" x="152" y="176" width="90" height="64">
<rect x="152.693" y="176.77" width="88.5" height="62.7889" rx="1.75" fill="white" stroke="white" stroke-width="0.5"/>
</mask>
<g mask="url(#mask0_0_329)">
<path fill-rule="evenodd" clip-rule="evenodd" d="M152.443 197.616H241.443V176.52H152.443V197.616Z" fill="#F64253"/>
<path fill-rule="evenodd" clip-rule="evenodd" d="M152.443 239.809H241.443V218.713H152.443V239.809Z" fill="#F64253"/>
</g>
<path d="M73.4105 294.069V301.769H83.7505V306.653H73.4105V314.793H85.0705V319.809H67.2505V289.053H85.0705V294.069H73.4105ZM132.16 289.097L123.58 319.809H116.32L110.556 297.941L104.528 319.809L97.3125 319.853L89.0405 289.097H95.6405L101.052 312.945L107.3 289.097H114.164L120.06 312.813L125.516 289.097H132.16ZM155.367 301.505V306.697H136.711V301.505H155.367ZM203.767 289.097L195.187 319.809H187.927L182.163 297.941L176.135 319.809L168.919 319.853L160.647 289.097H167.247L172.659 312.945L178.907 289.097H185.771L191.667 312.813L197.123 289.097H203.767ZM206.645 307.533C206.645 305.069 207.129 302.884 208.097 300.977C209.095 299.07 210.429 297.604 212.101 296.577C213.803 295.55 215.695 295.037 217.777 295.037C219.596 295.037 221.18 295.404 222.529 296.137C223.908 296.87 225.008 297.794 225.829 298.909V295.433H232.033V319.809H225.829V316.245C225.037 317.389 223.937 318.342 222.529 319.105C221.151 319.838 219.552 320.205 217.733 320.205C215.68 320.205 213.803 319.677 212.101 318.621C210.429 317.565 209.095 316.084 208.097 314.177C207.129 312.241 206.645 310.026 206.645 307.533ZM225.829 307.621C225.829 306.125 225.536 304.849 224.949 303.793C224.363 302.708 223.571 301.886 222.573 301.329C221.576 300.742 220.505 300.449 219.361 300.449C218.217 300.449 217.161 300.728 216.193 301.285C215.225 301.842 214.433 302.664 213.817 303.749C213.231 304.805 212.937 306.066 212.937 307.533C212.937 309 213.231 310.29 213.817 311.405C214.433 312.49 215.225 313.326 216.193 313.913C217.191 314.5 218.247 314.793 219.361 314.793C220.505 314.793 221.576 314.514 222.573 313.957C223.571 313.37 224.363 312.549 224.949 311.493C225.536 310.408 225.829 309.117 225.829 307.621ZM247.818 320.205C245.823 320.205 244.034 319.853 242.45 319.149C240.866 318.416 239.604 317.433 238.666 316.201C237.756 314.969 237.258 313.605 237.17 312.109H243.374C243.491 313.048 243.946 313.825 244.738 314.441C245.559 315.057 246.571 315.365 247.774 315.365C248.947 315.365 249.856 315.13 250.502 314.661C251.176 314.192 251.514 313.59 251.514 312.857C251.514 312.065 251.103 311.478 250.282 311.097C249.49 310.686 248.214 310.246 246.454 309.777C244.635 309.337 243.139 308.882 241.966 308.413C240.822 307.944 239.824 307.225 238.974 306.257C238.152 305.289 237.742 303.984 237.742 302.341C237.742 300.992 238.123 299.76 238.886 298.645C239.678 297.53 240.792 296.65 242.23 296.005C243.696 295.36 245.412 295.037 247.378 295.037C250.282 295.037 252.599 295.77 254.33 297.237C256.06 298.674 257.014 300.625 257.19 303.089H251.294C251.206 302.121 250.795 301.358 250.062 300.801C249.358 300.214 248.404 299.921 247.202 299.921C246.087 299.921 245.222 300.126 244.606 300.537C244.019 300.948 243.726 301.52 243.726 302.253C243.726 303.074 244.136 303.705 244.958 304.145C245.779 304.556 247.055 304.981 248.786 305.421C250.546 305.861 251.998 306.316 253.142 306.785C254.286 307.254 255.268 307.988 256.09 308.985C256.94 309.953 257.38 311.244 257.41 312.857C257.41 314.265 257.014 315.526 256.222 316.641C255.459 317.756 254.344 318.636 252.878 319.281C251.44 319.897 249.754 320.205 247.818 320.205ZM272.234 320.205C270.239 320.205 268.45 319.853 266.866 319.149C265.282 318.416 264.021 317.433 263.082 316.201C262.173 314.969 261.674 313.605 261.586 312.109H267.79C267.907 313.048 268.362 313.825 269.154 314.441C269.975 315.057 270.987 315.365 272.19 315.365C273.363 315.365 274.273 315.13 274.918 314.661C275.593 314.192 275.93 313.59 275.93 312.857C275.93 312.065 275.519 311.478 274.698 311.097C273.906 310.686 272.63 310.246 270.87 309.777C269.051 309.337 267.555 308.882 266.382 308.413C265.238 307.944 264.241 307.225 263.39 306.257C262.569 305.289 262.158 303.984 262.158 302.341C262.158 300.992 262.539 299.76 263.302 298.645C264.094 297.53 265.209 296.65 266.646 296.005C268.113 295.36 269.829 295.037 271.794 295.037C274.698 295.037 277.015 295.77 278.746 297.237C280.477 298.674 281.43 300.625 281.606 303.089H275.71C275.622 302.121 275.211 301.358 274.478 300.801C273.774 300.214 272.821 299.921 271.618 299.921C270.503 299.921 269.638 300.126 269.022 300.537C268.435 300.948 268.142 301.52 268.142 302.253C268.142 303.074 268.553 303.705 269.374 304.145C270.195 304.556 271.471 304.981 273.202 305.421C274.962 305.861 276.414 306.316 277.558 306.785C278.702 307.254 279.685 307.988 280.506 308.985C281.357 309.953 281.797 311.244 281.826 312.857C281.826 314.265 281.43 315.526 280.638 316.641C279.875 317.756 278.761 318.636 277.294 319.281C275.857 319.897 274.17 320.205 272.234 320.205ZM309.983 307.093C309.983 307.973 309.924 308.765 309.807 309.469H291.987C292.133 311.229 292.749 312.608 293.835 313.605C294.92 314.602 296.255 315.101 297.839 315.101C300.127 315.101 301.755 314.118 302.723 312.153H309.367C308.663 314.5 307.313 316.436 305.319 317.961C303.324 319.457 300.875 320.205 297.971 320.205C295.624 320.205 293.512 319.692 291.635 318.665C289.787 317.609 288.335 316.128 287.279 314.221C286.252 312.314 285.739 310.114 285.739 307.621C285.739 305.098 286.252 302.884 287.279 300.977C288.305 299.07 289.743 297.604 291.591 296.577C293.439 295.55 295.565 295.037 297.971 295.037C300.288 295.037 302.356 295.536 304.175 296.533C306.023 297.53 307.445 298.953 308.443 300.801C309.469 302.62 309.983 304.717 309.983 307.093ZM303.603 305.333C303.573 303.749 303.001 302.488 301.887 301.549C300.772 300.581 299.408 300.097 297.795 300.097C296.269 300.097 294.979 300.566 293.923 301.505C292.896 302.414 292.265 303.69 292.031 305.333H303.603ZM321.079 299.217C321.871 297.926 322.898 296.914 324.159 296.181C325.45 295.448 326.916 295.081 328.559 295.081V301.549H326.931C324.995 301.549 323.528 302.004 322.531 302.913C321.563 303.822 321.079 305.406 321.079 307.665V319.809H314.919V295.433H321.079V299.217Z" fill="#003247"/>
<line x1="124.443" y1="209" x2="52.4432" y2="209" stroke="#00AE9D" stroke-width="2"/>
<line x1="341.443" y1="209" x2="269.443" y2="209" stroke="#00AE9D" stroke-width="2"/>
</svg>
