<svg width="394" height="393" viewBox="0 0 394 393" fill="none" xmlns="http://www.w3.org/2000/svg">
<rect x="0.443359" width="393" height="393" rx="8" fill="#00AE9D"/>
<path d="M341.165 54.0239V71.5599H304.557V90.5039H331.949V107.528H304.557V143.88H282.669V54.0239H341.165Z" fill="#B0F6EA"/>
<path d="M261.686 54.0239V143.88H239.798V54.0239H261.686Z" fill="#B0F6EA"/>
<path d="M223.692 54.0239V71.5599H199.884V143.88H177.996V71.5599H154.188V54.0239H223.692Z" fill="#003247"/>
<path d="M116.082 82.44C114.46 79.4533 112.114 77.192 109.042 75.656C106.055 74.0347 102.514 73.224 98.4177 73.224C91.335 73.224 85.6603 75.5707 81.3937 80.264C77.127 84.872 74.9937 91.0587 74.9937 98.824C74.9937 107.101 77.2123 113.587 81.6497 118.28C86.1723 122.888 92.359 125.192 100.21 125.192C105.586 125.192 110.108 123.827 113.778 121.096C117.532 118.365 120.263 114.44 121.97 109.32H94.1937V93.192H141.81V113.544C140.188 119.005 137.415 124.083 133.49 128.776C129.65 133.469 124.743 137.267 118.77 140.168C112.796 143.069 106.055 144.52 98.5457 144.52C89.671 144.52 81.735 142.6 74.7377 138.76C67.8257 134.835 62.407 129.416 58.4817 122.504C54.6417 115.592 52.7217 107.699 52.7217 98.824C52.7217 89.9493 54.6417 82.056 58.4817 75.144C62.407 68.1467 67.8257 62.728 74.7377 58.888C81.6497 54.9627 89.543 53 98.4177 53C109.17 53 118.215 55.6027 125.554 60.808C132.978 66.0133 137.884 73.224 140.274 82.44H116.082Z" fill="#003247"/>
<rect x="152.693" y="176.77" width="88.5" height="62.7889" rx="1.75" fill="white" stroke="#F5F5F5" stroke-width="0.5"/>
<mask id="mask0_0_465" style="mask-type:luminance" maskUnits="userSpaceOnUse" x="152" y="176" width="90" height="64">
<rect x="152.693" y="176.77" width="88.5" height="62.7889" rx="1.75" fill="white" stroke="white" stroke-width="0.5"/>
</mask>
<g mask="url(#mask0_0_465)">
<path fill-rule="evenodd" clip-rule="evenodd" d="M152.443 197.616H241.443V176.52H152.443V197.616Z" fill="#F64253"/>
<path fill-rule="evenodd" clip-rule="evenodd" d="M152.443 239.809H241.443V218.713H152.443V239.809Z" fill="#F64253"/>
</g>
<path d="M137.974 300.873C137.222 299.494 136.188 298.445 134.872 297.724C133.556 297.003 132.021 296.643 130.266 296.643C128.323 296.643 126.6 297.082 125.096 297.959C123.592 298.836 122.417 300.09 121.571 301.719C120.725 303.348 120.302 305.228 120.302 307.359C120.302 309.552 120.725 311.464 121.571 313.093C122.448 314.722 123.655 315.976 125.19 316.853C126.725 317.73 128.511 318.169 130.548 318.169C133.055 318.169 135.107 317.511 136.705 316.195C138.303 314.848 139.353 312.983 139.854 310.602H128.574V305.573H146.34V311.307C145.901 313.594 144.961 315.709 143.52 317.652C142.079 319.595 140.214 321.161 137.927 322.352C135.671 323.511 133.133 324.091 130.313 324.091C127.148 324.091 124.281 323.386 121.712 321.976C119.174 320.535 117.169 318.545 115.696 316.007C114.255 313.469 113.534 310.586 113.534 307.359C113.534 304.132 114.255 301.249 115.696 298.711C117.169 296.142 119.174 294.152 121.712 292.742C124.281 291.301 127.133 290.58 130.266 290.58C133.963 290.58 137.175 291.489 139.901 293.306C142.627 295.092 144.507 297.614 145.541 300.873H137.974ZM158.258 296.314V304.539H169.303V309.756H158.258V318.451H170.713V323.809H151.678V290.956H170.713V296.314H158.258ZM199.488 291.003V296.314H190.746V323.809H184.166V296.314H175.424V291.003H199.488ZM224.781 304.257V309.803H204.853V304.257H224.781ZM239.21 296.314V304.539H250.255V309.756H239.21V318.451H251.665V323.809H232.63V290.956H251.665V296.314H239.21ZM280.44 291.003V296.314H271.698V323.809H265.118V296.314H256.376V291.003H280.44Z" fill="#B0F6EA"/>
<line x1="124.443" y1="209" x2="52.4434" y2="209" stroke="#B0F6EA" stroke-width="2"/>
<line x1="341.443" y1="209" x2="269.443" y2="209" stroke="#B0F6EA" stroke-width="2"/>
</svg>
