<svg width="394" height="393" viewBox="0 0 394 393" fill="none" xmlns="http://www.w3.org/2000/svg">
<rect x="0.443237" width="393" height="393" rx="8" fill="#B0F6EA"/>
<path d="M341.165 54.0239V71.5599H304.557V90.5039H331.949V107.528H304.557V143.88H282.669V54.0239H341.165Z" fill="#00AE9D"/>
<path d="M261.686 54.0239V143.88H239.798V54.0239H261.686Z" fill="#00AE9D"/>
<path d="M223.692 54.0239V71.5599H199.884V143.88H177.996V71.5599H154.188V54.0239H223.692Z" fill="#003247"/>
<path d="M116.082 82.44C114.46 79.4533 112.114 77.192 109.042 75.656C106.055 74.0347 102.514 73.224 98.4176 73.224C91.335 73.224 85.6603 75.5707 81.3936 80.264C77.127 84.872 74.9936 91.0587 74.9936 98.824C74.9936 107.101 77.2123 113.587 81.6496 118.28C86.1723 122.888 92.359 125.192 100.21 125.192C105.586 125.192 110.108 123.827 113.778 121.096C117.532 118.365 120.263 114.44 121.97 109.32H94.1936V93.192H141.81V113.544C140.188 119.005 137.415 124.083 133.49 128.776C129.65 133.469 124.743 137.267 118.77 140.168C112.796 143.069 106.055 144.52 98.5456 144.52C89.671 144.52 81.735 142.6 74.7376 138.76C67.8256 134.835 62.407 129.416 58.4816 122.504C54.6416 115.592 52.7216 107.699 52.7216 98.824C52.7216 89.9493 54.6416 82.056 58.4816 75.144C62.407 68.1467 67.8256 62.728 74.7376 58.888C81.6496 54.9627 89.543 53 98.4176 53C109.17 53 118.215 55.6027 125.554 60.808C132.978 66.0133 137.884 73.224 140.274 82.44H116.082Z" fill="#003247"/>
<rect x="152.693" y="176.77" width="88.5" height="62.7889" rx="1.75" fill="white" stroke="#F5F5F5" stroke-width="0.5"/>
<mask id="mask0_0_362" style="mask-type:luminance" maskUnits="userSpaceOnUse" x="152" y="176" width="90" height="64">
<rect x="152.693" y="176.77" width="88.5" height="62.7889" rx="1.75" fill="white" stroke="white" stroke-width="0.5"/>
</mask>
<g mask="url(#mask0_0_362)">
<path fill-rule="evenodd" clip-rule="evenodd" d="M152.443 197.616H241.443V176.52H152.443V197.616Z" fill="#F64253"/>
<path fill-rule="evenodd" clip-rule="evenodd" d="M152.443 239.809H241.443V218.713H152.443V239.809Z" fill="#F64253"/>
</g>
<path d="M141.738 298.337C141.034 297.046 140.066 296.064 138.834 295.389C137.602 294.714 136.165 294.377 134.522 294.377C132.703 294.377 131.09 294.788 129.682 295.609C128.274 296.43 127.174 297.604 126.382 299.129C125.59 300.654 125.194 302.414 125.194 304.409C125.194 306.462 125.59 308.252 126.382 309.777C127.203 311.302 128.333 312.476 129.77 313.297C131.207 314.118 132.879 314.529 134.786 314.529C137.133 314.529 139.054 313.913 140.55 312.681C142.046 311.42 143.029 309.674 143.498 307.445H132.938V302.737H149.57V308.105C149.159 310.246 148.279 312.226 146.93 314.045C145.581 315.864 143.835 317.33 141.694 318.445C139.582 319.53 137.206 320.073 134.566 320.073C131.603 320.073 128.919 319.413 126.514 318.093C124.138 316.744 122.261 314.881 120.882 312.505C119.533 310.129 118.858 307.43 118.858 304.409C118.858 301.388 119.533 298.689 120.882 296.313C122.261 293.908 124.138 292.045 126.514 290.725C128.919 289.376 131.589 288.701 134.522 288.701C137.983 288.701 140.99 289.552 143.542 291.253C146.094 292.925 147.854 295.286 148.822 298.337H141.738ZM160.727 294.069V301.769H171.067V306.653H160.727V314.793H172.387V319.809H154.567V289.053H172.387V294.069H160.727ZM199.325 289.097V294.069H191.141V319.809H184.981V294.069H176.797V289.097H199.325ZM223.004 301.505V306.697H204.348V301.505H223.004ZM236.512 294.069V301.769H246.852V306.653H236.512V314.793H248.172V319.809H230.352V289.053H248.172V294.069H236.512ZM275.11 289.097V294.069H266.926V319.809H260.766V294.069H252.582V289.097H275.11Z" fill="#003247"/>
<line x1="124.443" y1="209" x2="52.4432" y2="209" stroke="#00AE9D" stroke-width="2"/>
<line x1="341.443" y1="209" x2="269.443" y2="209" stroke="#00AE9D" stroke-width="2"/>
</svg>
