<svg width="394" height="393" viewBox="0 0 394 393" fill="none" xmlns="http://www.w3.org/2000/svg">
<rect x="0.443237" width="393" height="393" rx="8" fill="#B0F6EA"/>
<path d="M341.165 54.0239V71.5599H304.557V90.5039H331.949V107.528H304.557V143.88H282.669V54.0239H341.165Z" fill="#00AE9D"/>
<path d="M261.686 54.0239V143.88H239.798V54.0239H261.686Z" fill="#00AE9D"/>
<path d="M223.692 54.0239V71.5599H199.884V143.88H177.996V71.5599H154.188V54.0239H223.692Z" fill="#003247"/>
<path d="M116.082 82.44C114.46 79.4533 112.114 77.192 109.042 75.656C106.055 74.0347 102.514 73.224 98.4176 73.224C91.335 73.224 85.6603 75.5707 81.3936 80.264C77.127 84.872 74.9936 91.0587 74.9936 98.824C74.9936 107.101 77.2123 113.587 81.6496 118.28C86.1723 122.888 92.359 125.192 100.21 125.192C105.586 125.192 110.108 123.827 113.778 121.096C117.532 118.365 120.263 114.44 121.97 109.32H94.1936V93.192H141.81V113.544C140.188 119.005 137.415 124.083 133.49 128.776C129.65 133.469 124.743 137.267 118.77 140.168C112.796 143.069 106.055 144.52 98.5456 144.52C89.671 144.52 81.735 142.6 74.7376 138.76C67.8256 134.835 62.407 129.416 58.4816 122.504C54.6416 115.592 52.7216 107.699 52.7216 98.824C52.7216 89.9493 54.6416 82.056 58.4816 75.144C62.407 68.1467 67.8256 62.728 74.7376 58.888C81.6496 54.9627 89.543 53 98.4176 53C109.17 53 118.215 55.6027 125.554 60.808C132.978 66.0133 137.884 73.224 140.274 82.44H116.082Z" fill="#003247"/>
<rect x="152.693" y="176.77" width="88.5" height="62.7889" rx="1.75" fill="white" stroke="#F5F5F5" stroke-width="0.5"/>
<mask id="mask0_0_351" style="mask-type:luminance" maskUnits="userSpaceOnUse" x="152" y="176" width="90" height="64">
<rect x="152.693" y="176.77" width="88.5" height="62.7889" rx="1.75" fill="white" stroke="white" stroke-width="0.5"/>
</mask>
<g mask="url(#mask0_0_351)">
<path fill-rule="evenodd" clip-rule="evenodd" d="M152.443 197.616H241.443V176.52H152.443V197.616Z" fill="#F64253"/>
<path fill-rule="evenodd" clip-rule="evenodd" d="M152.443 239.809H241.443V218.713H152.443V239.809Z" fill="#F64253"/>
</g>
<path d="M178.462 294.069V301.769H188.802V306.653H178.462V314.793H190.122V319.809H172.302V289.053H190.122V294.069H178.462ZM214.992 313.957H202.76L200.736 319.809H194.268L205.312 289.053H212.484L223.528 319.809H217.016L214.992 313.957ZM213.32 309.029L208.876 296.181L204.432 309.029H213.32Z" fill="#003247"/>
<line x1="124.443" y1="209" x2="52.4432" y2="209" stroke="#00AE9D" stroke-width="2"/>
<line x1="341.443" y1="209" x2="269.443" y2="209" stroke="#00AE9D" stroke-width="2"/>
</svg>
