<svg width="394" height="393" viewBox="0 0 394 393" fill="none" xmlns="http://www.w3.org/2000/svg">
<rect x="0.443237" width="393" height="393" rx="8" fill="#B0F6EA"/>
<path d="M341.165 54.0239V71.5599H304.557V90.5039H331.949V107.528H304.557V143.88H282.669V54.0239H341.165Z" fill="#00AE9D"/>
<path d="M261.686 54.0239V143.88H239.798V54.0239H261.686Z" fill="#00AE9D"/>
<path d="M223.692 54.0239V71.5599H199.884V143.88H177.996V71.5599H154.188V54.0239H223.692Z" fill="#003247"/>
<path d="M116.082 82.44C114.46 79.4533 112.114 77.192 109.042 75.656C106.055 74.0347 102.514 73.224 98.4176 73.224C91.335 73.224 85.6603 75.5707 81.3936 80.264C77.127 84.872 74.9936 91.0587 74.9936 98.824C74.9936 107.101 77.2123 113.587 81.6496 118.28C86.1723 122.888 92.359 125.192 100.21 125.192C105.586 125.192 110.108 123.827 113.778 121.096C117.532 118.365 120.263 114.44 121.97 109.32H94.1936V93.192H141.81V113.544C140.188 119.005 137.415 124.083 133.49 128.776C129.65 133.469 124.743 137.267 118.77 140.168C112.796 143.069 106.055 144.52 98.5456 144.52C89.671 144.52 81.735 142.6 74.7376 138.76C67.8256 134.835 62.407 129.416 58.4816 122.504C54.6416 115.592 52.7216 107.699 52.7216 98.824C52.7216 89.9493 54.6416 82.056 58.4816 75.144C62.407 68.1467 67.8256 62.728 74.7376 58.888C81.6496 54.9627 89.543 53 98.4176 53C109.17 53 118.215 55.6027 125.554 60.808C132.978 66.0133 137.884 73.224 140.274 82.44H116.082Z" fill="#003247"/>
<rect x="152.693" y="176.77" width="88.5" height="62.7889" rx="1.75" fill="white" stroke="#F5F5F5" stroke-width="0.5"/>
<mask id="mask0_0_318" style="mask-type:luminance" maskUnits="userSpaceOnUse" x="152" y="176" width="90" height="64">
<rect x="152.693" y="176.77" width="88.5" height="62.7889" rx="1.75" fill="white" stroke="white" stroke-width="0.5"/>
</mask>
<g mask="url(#mask0_0_318)">
<path fill-rule="evenodd" clip-rule="evenodd" d="M152.443 197.616H241.443V176.52H152.443V197.616Z" fill="#F64253"/>
<path fill-rule="evenodd" clip-rule="evenodd" d="M152.443 239.809H241.443V218.713H152.443V239.809Z" fill="#F64253"/>
</g>
<path d="M78.637 289.097C81.8637 289.097 84.6944 289.728 87.129 290.989C89.593 292.25 91.485 294.054 92.805 296.401C94.1544 298.718 94.829 301.417 94.829 304.497C94.829 307.577 94.1544 310.276 92.805 312.593C91.485 314.881 89.593 316.656 87.129 317.917C84.6944 319.178 81.8637 319.809 78.637 319.809H67.901V289.097H78.637ZM78.417 314.573C81.6437 314.573 84.137 313.693 85.897 311.933C87.657 310.173 88.537 307.694 88.537 304.497C88.537 301.3 87.657 298.806 85.897 297.017C84.137 295.198 81.6437 294.289 78.417 294.289H74.061V314.573H78.417ZM103.004 292.529C101.919 292.529 101.009 292.192 100.276 291.517C99.5721 290.813 99.2201 289.948 99.2201 288.921C99.2201 287.894 99.5721 287.044 100.276 286.369C101.009 285.665 101.919 285.313 103.004 285.313C104.089 285.313 104.984 285.665 105.688 286.369C106.421 287.044 106.788 287.894 106.788 288.921C106.788 289.948 106.421 290.813 105.688 291.517C104.984 292.192 104.089 292.529 103.004 292.529ZM106.04 295.433V319.809H99.8801V295.433H106.04ZM122.114 295.037C123.933 295.037 125.532 295.404 126.91 296.137C128.289 296.841 129.374 297.765 130.166 298.909V295.433H136.37V319.985C136.37 322.244 135.916 324.253 135.006 326.013C134.097 327.802 132.733 329.21 130.914 330.237C129.096 331.293 126.896 331.821 124.314 331.821C120.853 331.821 118.008 331.014 115.778 329.401C113.578 327.788 112.332 325.588 112.038 322.801H118.154C118.477 323.916 119.166 324.796 120.222 325.441C121.308 326.116 122.613 326.453 124.138 326.453C125.928 326.453 127.38 325.91 128.494 324.825C129.609 323.769 130.166 322.156 130.166 319.985V316.201C129.374 317.345 128.274 318.298 126.866 319.061C125.488 319.824 123.904 320.205 122.114 320.205C120.061 320.205 118.184 319.677 116.482 318.621C114.781 317.565 113.432 316.084 112.434 314.177C111.466 312.241 110.982 310.026 110.982 307.533C110.982 305.069 111.466 302.884 112.434 300.977C113.432 299.07 114.766 297.604 116.438 296.577C118.14 295.55 120.032 295.037 122.114 295.037ZM130.166 307.621C130.166 306.125 129.873 304.849 129.286 303.793C128.7 302.708 127.908 301.886 126.91 301.329C125.913 300.742 124.842 300.449 123.698 300.449C122.554 300.449 121.498 300.728 120.53 301.285C119.562 301.842 118.77 302.664 118.154 303.749C117.568 304.805 117.274 306.066 117.274 307.533C117.274 309 117.568 310.29 118.154 311.405C118.77 312.49 119.562 313.326 120.53 313.913C121.528 314.5 122.584 314.793 123.698 314.793C124.842 314.793 125.913 314.514 126.91 313.957C127.908 313.37 128.7 312.549 129.286 311.493C129.873 310.408 130.166 309.117 130.166 307.621ZM145.951 292.529C144.865 292.529 143.956 292.192 143.223 291.517C142.519 290.813 142.167 289.948 142.167 288.921C142.167 287.894 142.519 287.044 143.223 286.369C143.956 285.665 144.865 285.313 145.951 285.313C147.036 285.313 147.931 285.665 148.635 286.369C149.368 287.044 149.735 287.894 149.735 288.921C149.735 289.948 149.368 290.813 148.635 291.517C147.931 292.192 147.036 292.529 145.951 292.529ZM148.987 295.433V319.809H142.827V295.433H148.987ZM162.685 300.493V312.285C162.685 313.106 162.875 313.708 163.257 314.089C163.667 314.441 164.342 314.617 165.281 314.617H168.141V319.809H164.269C159.077 319.809 156.481 317.286 156.481 312.241V300.493H153.577V295.433H156.481V289.405H162.685V295.433H168.141V300.493H162.685ZM171.427 307.533C171.427 305.069 171.911 302.884 172.879 300.977C173.877 299.07 175.211 297.604 176.883 296.577C178.585 295.55 180.477 295.037 182.559 295.037C184.378 295.037 185.962 295.404 187.311 296.137C188.69 296.87 189.79 297.794 190.611 298.909V295.433H196.815V319.809H190.611V316.245C189.819 317.389 188.719 318.342 187.311 319.105C185.933 319.838 184.334 320.205 182.515 320.205C180.462 320.205 178.585 319.677 176.883 318.621C175.211 317.565 173.877 316.084 172.879 314.177C171.911 312.241 171.427 310.026 171.427 307.533ZM190.611 307.621C190.611 306.125 190.318 304.849 189.731 303.793C189.145 302.708 188.353 301.886 187.355 301.329C186.358 300.742 185.287 300.449 184.143 300.449C182.999 300.449 181.943 300.728 180.975 301.285C180.007 301.842 179.215 302.664 178.599 303.749C178.013 304.805 177.719 306.066 177.719 307.533C177.719 309 178.013 310.29 178.599 311.405C179.215 312.49 180.007 313.326 180.975 313.913C181.973 314.5 183.029 314.793 184.143 314.793C185.287 314.793 186.358 314.514 187.355 313.957C188.353 313.37 189.145 312.549 189.731 311.493C190.318 310.408 190.611 309.117 190.611 307.621ZM209.432 287.249V319.809H203.272V287.249H209.432ZM247.782 289.097V294.069H239.598V319.809H233.438V294.069H225.254V289.097H247.782ZM286.509 295.433L279.381 319.809H272.737L268.293 302.781L263.849 319.809H257.161L249.989 295.433H256.237L260.549 314.001L265.213 295.433H271.725L276.301 313.957L280.613 295.433H286.509ZM293.405 292.529C292.32 292.529 291.411 292.192 290.677 291.517C289.973 290.813 289.621 289.948 289.621 288.921C289.621 287.894 289.973 287.044 290.677 286.369C291.411 285.665 292.32 285.313 293.405 285.313C294.491 285.313 295.385 285.665 296.089 286.369C296.823 287.044 297.189 287.894 297.189 288.921C297.189 289.948 296.823 290.813 296.089 291.517C295.385 292.192 294.491 292.529 293.405 292.529ZM296.441 295.433V319.809H290.281V295.433H296.441ZM316.476 295.081C319.38 295.081 321.726 296.005 323.516 297.853C325.305 299.672 326.2 302.224 326.2 305.509V319.809H320.04V306.345C320.04 304.409 319.556 302.928 318.588 301.901C317.62 300.845 316.3 300.317 314.628 300.317C312.926 300.317 311.577 300.845 310.58 301.901C309.612 302.928 309.128 304.409 309.128 306.345V319.809H302.968V295.433H309.128V298.469C309.949 297.413 310.99 296.592 312.252 296.005C313.542 295.389 314.95 295.081 316.476 295.081Z" fill="#003247"/>
<line x1="124.443" y1="209" x2="52.4432" y2="209" stroke="#00AE9D" stroke-width="2"/>
<line x1="341.443" y1="209" x2="269.443" y2="209" stroke="#00AE9D" stroke-width="2"/>
</svg>
