<svg width="394" height="393" viewBox="0 0 394 393" fill="none" xmlns="http://www.w3.org/2000/svg">
<rect x="0.443359" width="393" height="393" rx="8" fill="#00AE9D"/>
<path d="M341.165 54.0239V71.5599H304.557V90.5039H331.949V107.528H304.557V143.88H282.669V54.0239H341.165Z" fill="#B0F6EA"/>
<path d="M261.686 54.0239V143.88H239.798V54.0239H261.686Z" fill="#B0F6EA"/>
<path d="M223.692 54.0239V71.5599H199.884V143.88H177.996V71.5599H154.188V54.0239H223.692Z" fill="#003247"/>
<path d="M116.082 82.44C114.46 79.4533 112.114 77.192 109.042 75.656C106.055 74.0347 102.514 73.224 98.4177 73.224C91.335 73.224 85.6603 75.5707 81.3937 80.264C77.127 84.872 74.9937 91.0587 74.9937 98.824C74.9937 107.101 77.2123 113.587 81.6497 118.28C86.1723 122.888 92.359 125.192 100.21 125.192C105.586 125.192 110.108 123.827 113.778 121.096C117.532 118.365 120.263 114.44 121.97 109.32H94.1937V93.192H141.81V113.544C140.188 119.005 137.415 124.083 133.49 128.776C129.65 133.469 124.743 137.267 118.77 140.168C112.796 143.069 106.055 144.52 98.5457 144.52C89.671 144.52 81.735 142.6 74.7377 138.76C67.8257 134.835 62.407 129.416 58.4817 122.504C54.6417 115.592 52.7217 107.699 52.7217 98.824C52.7217 89.9493 54.6417 82.056 58.4817 75.144C62.407 68.1467 67.8257 62.728 74.7377 58.888C81.6497 54.9627 89.543 53 98.4177 53C109.17 53 118.215 55.6027 125.554 60.808C132.978 66.0133 137.884 73.224 140.274 82.44H116.082Z" fill="#003247"/>
<rect x="152.693" y="176.77" width="88.5" height="62.7889" rx="1.75" fill="white" stroke="#F5F5F5" stroke-width="0.5"/>
<mask id="mask0_0_443" style="mask-type:luminance" maskUnits="userSpaceOnUse" x="152" y="176" width="90" height="64">
<rect x="152.693" y="176.77" width="88.5" height="62.7889" rx="1.75" fill="white" stroke="white" stroke-width="0.5"/>
</mask>
<g mask="url(#mask0_0_443)">
<path fill-rule="evenodd" clip-rule="evenodd" d="M152.443 197.616H241.443V176.52H152.443V197.616Z" fill="#F64253"/>
<path fill-rule="evenodd" clip-rule="evenodd" d="M152.443 239.809H241.443V218.713H152.443V239.809Z" fill="#F64253"/>
</g>
<path d="M178.92 324.138C176.633 324.138 174.565 323.746 172.716 322.963C170.899 322.18 169.457 321.052 168.392 319.579C167.327 318.106 166.778 316.367 166.747 314.362H173.797C173.891 315.709 174.361 316.775 175.207 317.558C176.084 318.341 177.275 318.733 178.779 318.733C180.314 318.733 181.521 318.373 182.398 317.652C183.275 316.9 183.714 315.929 183.714 314.738C183.714 313.767 183.416 312.968 182.821 312.341C182.226 311.714 181.474 311.229 180.565 310.884C179.688 310.508 178.466 310.101 176.899 309.662C174.768 309.035 173.029 308.424 171.682 307.829C170.366 307.202 169.222 306.278 168.251 305.056C167.311 303.803 166.841 302.142 166.841 300.074C166.841 298.131 167.327 296.439 168.298 294.998C169.269 293.557 170.632 292.46 172.387 291.708C174.142 290.925 176.147 290.533 178.403 290.533C181.787 290.533 184.529 291.363 186.628 293.024C188.759 294.653 189.934 296.941 190.153 299.886H182.915C182.852 298.758 182.367 297.834 181.458 297.113C180.581 296.361 179.406 295.985 177.933 295.985C176.648 295.985 175.614 296.314 174.831 296.972C174.079 297.63 173.703 298.586 173.703 299.839C173.703 300.716 173.985 301.453 174.549 302.048C175.144 302.612 175.865 303.082 176.711 303.458C177.588 303.803 178.81 304.21 180.377 304.68C182.508 305.307 184.247 305.933 185.594 306.56C186.941 307.187 188.101 308.127 189.072 309.38C190.043 310.633 190.529 312.278 190.529 314.315C190.529 316.07 190.075 317.699 189.166 319.203C188.257 320.707 186.926 321.913 185.171 322.822C183.416 323.699 181.333 324.138 178.92 324.138ZM195.106 307.359C195.106 304.132 195.826 301.249 197.268 298.711C198.74 296.142 200.73 294.152 203.237 292.742C205.775 291.301 208.61 290.58 211.744 290.58C215.41 290.58 218.621 291.52 221.379 293.4C224.136 295.28 226.063 297.881 227.16 301.202H219.593C218.841 299.635 217.775 298.46 216.397 297.677C215.049 296.894 213.483 296.502 211.697 296.502C209.785 296.502 208.078 296.956 206.574 297.865C205.101 298.742 203.942 299.996 203.096 301.625C202.281 303.254 201.874 305.166 201.874 307.359C201.874 309.521 202.281 311.432 203.096 313.093C203.942 314.722 205.101 315.991 206.574 316.9C208.078 317.777 209.785 318.216 211.697 318.216C213.483 318.216 215.049 317.824 216.397 317.041C217.775 316.226 218.841 315.036 219.593 313.469H227.16C226.063 316.822 224.136 319.438 221.379 321.318C218.653 323.167 215.441 324.091 211.744 324.091C208.61 324.091 205.775 323.386 203.237 321.976C200.73 320.535 198.74 318.545 197.268 316.007C195.826 313.469 195.106 310.586 195.106 307.359Z" fill="#B0F6EA"/>
<line x1="124.443" y1="209" x2="52.4434" y2="209" stroke="#B0F6EA" stroke-width="2"/>
<line x1="341.443" y1="209" x2="269.443" y2="209" stroke="#B0F6EA" stroke-width="2"/>
</svg>
