<svg width="394" height="393" viewBox="0 0 394 393" fill="none" xmlns="http://www.w3.org/2000/svg">
<rect x="0.443359" width="393" height="393" rx="8" fill="#00AE9D"/>
<path d="M341.165 54.0239V71.5599H304.557V90.5039H331.949V107.528H304.557V143.88H282.669V54.0239H341.165Z" fill="#B0F6EA"/>
<path d="M261.686 54.0239V143.88H239.798V54.0239H261.686Z" fill="#B0F6EA"/>
<path d="M223.692 54.0239V71.5599H199.884V143.88H177.996V71.5599H154.188V54.0239H223.692Z" fill="#003247"/>
<path d="M116.082 82.44C114.46 79.4533 112.114 77.192 109.042 75.656C106.055 74.0347 102.514 73.224 98.4177 73.224C91.335 73.224 85.6603 75.5707 81.3937 80.264C77.127 84.872 74.9937 91.0587 74.9937 98.824C74.9937 107.101 77.2123 113.587 81.6497 118.28C86.1723 122.888 92.359 125.192 100.21 125.192C105.586 125.192 110.108 123.827 113.778 121.096C117.532 118.365 120.263 114.44 121.97 109.32H94.1937V93.192H141.81V113.544C140.188 119.005 137.415 124.083 133.49 128.776C129.65 133.469 124.743 137.267 118.77 140.168C112.796 143.069 106.055 144.52 98.5457 144.52C89.671 144.52 81.735 142.6 74.7377 138.76C67.8257 134.835 62.407 129.416 58.4817 122.504C54.6417 115.592 52.7217 107.699 52.7217 98.824C52.7217 89.9493 54.6417 82.056 58.4817 75.144C62.407 68.1467 67.8257 62.728 74.7377 58.888C81.6497 54.9627 89.543 53 98.4177 53C109.17 53 118.215 55.6027 125.554 60.808C132.978 66.0133 137.884 73.224 140.274 82.44H116.082Z" fill="#003247"/>
<rect x="152.693" y="176.77" width="88.5" height="62.7889" rx="1.75" fill="white" stroke="#F5F5F5" stroke-width="0.5"/>
<mask id="mask0_0_421" style="mask-type:luminance" maskUnits="userSpaceOnUse" x="152" y="176" width="90" height="64">
<rect x="152.693" y="176.77" width="88.5" height="62.7889" rx="1.75" fill="white" stroke="white" stroke-width="0.5"/>
</mask>
<g mask="url(#mask0_0_421)">
<path fill-rule="evenodd" clip-rule="evenodd" d="M152.443 197.616H241.443V176.52H152.443V197.616Z" fill="#F64253"/>
<path fill-rule="evenodd" clip-rule="evenodd" d="M152.443 239.809H241.443V218.713H152.443V239.809Z" fill="#F64253"/>
</g>
<path d="M70.5708 291.003C74.0175 291.003 77.0412 291.677 79.6418 293.024C82.2738 294.371 84.2948 296.298 85.7048 298.805C87.1462 301.28 87.8668 304.163 87.8668 307.453C87.8668 310.743 87.1462 313.626 85.7048 316.101C84.2948 318.545 82.2738 320.441 79.6418 321.788C77.0412 323.135 74.0175 323.809 70.5708 323.809H59.1028V291.003H70.5708ZM70.3358 318.216C73.7825 318.216 76.4458 317.276 78.3258 315.396C80.2058 313.516 81.1458 310.868 81.1458 307.453C81.1458 304.038 80.2058 301.374 78.3258 299.463C76.4458 297.52 73.7825 296.549 70.3358 296.549H65.6828V318.216H70.3358ZM96.5993 294.669C95.4399 294.669 94.4686 294.309 93.6853 293.588C92.9333 292.836 92.5573 291.912 92.5573 290.815C92.5573 289.718 92.9333 288.81 93.6853 288.089C94.4686 287.337 95.4399 286.961 96.5993 286.961C97.7586 286.961 98.7143 287.337 99.4663 288.089C100.25 288.81 100.641 289.718 100.641 290.815C100.641 291.912 100.25 292.836 99.4663 293.588C98.7143 294.309 97.7586 294.669 96.5993 294.669ZM99.8423 297.771V323.809H93.2623V297.771H99.8423ZM117.012 297.348C118.955 297.348 120.663 297.74 122.135 298.523C123.608 299.275 124.767 300.262 125.613 301.484V297.771H132.24V323.997C132.24 326.41 131.755 328.556 130.783 330.436C129.812 332.347 128.355 333.851 126.412 334.948C124.47 336.076 122.12 336.64 119.362 336.64C115.665 336.64 112.626 335.778 110.244 334.055C107.894 332.332 106.563 329.982 106.249 327.005H112.782C113.127 328.196 113.863 329.136 114.991 329.825C116.151 330.546 117.545 330.906 119.174 330.906C121.086 330.906 122.637 330.326 123.827 329.167C125.018 328.039 125.613 326.316 125.613 323.997V319.955C124.767 321.177 123.592 322.195 122.088 323.01C120.616 323.825 118.924 324.232 117.012 324.232C114.819 324.232 112.814 323.668 110.996 322.54C109.179 321.412 107.738 319.83 106.672 317.793C105.638 315.725 105.121 313.359 105.121 310.696C105.121 308.064 105.638 305.73 106.672 303.693C107.738 301.656 109.163 300.09 110.949 298.993C112.767 297.896 114.788 297.348 117.012 297.348ZM125.613 310.79C125.613 309.192 125.3 307.829 124.673 306.701C124.047 305.542 123.201 304.664 122.135 304.069C121.07 303.442 119.926 303.129 118.704 303.129C117.482 303.129 116.354 303.427 115.32 304.022C114.286 304.617 113.44 305.495 112.782 306.654C112.156 307.782 111.842 309.129 111.842 310.696C111.842 312.263 112.156 313.641 112.782 314.832C113.44 315.991 114.286 316.884 115.32 317.511C116.386 318.138 117.514 318.451 118.704 318.451C119.926 318.451 121.07 318.153 122.135 317.558C123.201 316.931 124.047 316.054 124.673 314.926C125.3 313.767 125.613 312.388 125.613 310.79ZM142.474 294.669C141.315 294.669 140.343 294.309 139.56 293.588C138.808 292.836 138.432 291.912 138.432 290.815C138.432 289.718 138.808 288.81 139.56 288.089C140.343 287.337 141.315 286.961 142.474 286.961C143.633 286.961 144.589 287.337 145.341 288.089C146.124 288.81 146.516 289.718 146.516 290.815C146.516 291.912 146.124 292.836 145.341 293.588C144.589 294.309 143.633 294.669 142.474 294.669ZM145.717 297.771V323.809H139.137V297.771H145.717ZM160.349 303.176V315.772C160.349 316.649 160.553 317.292 160.96 317.699C161.399 318.075 162.119 318.263 163.122 318.263H166.177V323.809H162.041C156.495 323.809 153.722 321.114 153.722 315.725V303.176H150.62V297.771H153.722V291.332H160.349V297.771H166.177V303.176H160.349ZM169.688 310.696C169.688 308.064 170.205 305.73 171.239 303.693C172.304 301.656 173.73 300.09 175.516 298.993C177.333 297.896 179.354 297.348 181.579 297.348C183.521 297.348 185.213 297.74 186.655 298.523C188.127 299.306 189.302 300.293 190.18 301.484V297.771H196.807V323.809H190.18V320.002C189.334 321.224 188.159 322.242 186.655 323.057C185.182 323.84 183.474 324.232 181.532 324.232C179.338 324.232 177.333 323.668 175.516 322.54C173.73 321.412 172.304 319.83 171.239 317.793C170.205 315.725 169.688 313.359 169.688 310.696ZM190.18 310.79C190.18 309.192 189.866 307.829 189.24 306.701C188.613 305.542 187.767 304.664 186.702 304.069C185.636 303.442 184.493 303.129 183.271 303.129C182.049 303.129 180.921 303.427 179.887 304.022C178.853 304.617 178.007 305.495 177.349 306.654C176.722 307.782 176.409 309.129 176.409 310.696C176.409 312.263 176.722 313.641 177.349 314.832C178.007 315.991 178.853 316.884 179.887 317.511C180.952 318.138 182.08 318.451 183.271 318.451C184.493 318.451 185.636 318.153 186.702 317.558C187.767 316.931 188.613 316.054 189.24 314.926C189.866 313.767 190.18 312.388 190.18 310.79ZM210.283 289.029V323.809H203.703V289.029H210.283ZM251.248 291.003V296.314H242.506V323.809H235.926V296.314H227.184V291.003H251.248ZM292.615 297.771L285.001 323.809H277.904L273.157 305.62L268.41 323.809H261.266L253.605 297.771H260.279L264.885 317.605L269.867 297.771H276.823L281.711 317.558L286.317 297.771H292.615ZM299.983 294.669C298.823 294.669 297.852 294.309 297.069 293.588C296.317 292.836 295.941 291.912 295.941 290.815C295.941 289.718 296.317 288.81 297.069 288.089C297.852 287.337 298.823 286.961 299.983 286.961C301.142 286.961 302.098 287.337 302.85 288.089C303.633 288.81 304.025 289.718 304.025 290.815C304.025 291.912 303.633 292.836 302.85 293.588C302.098 294.309 301.142 294.669 299.983 294.669ZM303.226 297.771V323.809H296.646V297.771H303.226ZM324.626 297.395C327.728 297.395 330.234 298.382 332.146 300.356C334.057 302.299 335.013 305.025 335.013 308.534V323.809H328.433V309.427C328.433 307.359 327.916 305.777 326.882 304.68C325.848 303.552 324.438 302.988 322.652 302.988C320.834 302.988 319.393 303.552 318.328 304.68C317.294 305.777 316.777 307.359 316.777 309.427V323.809H310.197V297.771H316.777V301.014C317.654 299.886 318.766 299.009 320.114 298.382C321.492 297.724 322.996 297.395 324.626 297.395Z" fill="#B0F6EA"/>
<line x1="124.443" y1="209" x2="52.4434" y2="209" stroke="#B0F6EA" stroke-width="2"/>
<line x1="341.443" y1="209" x2="269.443" y2="209" stroke="#B0F6EA" stroke-width="2"/>
</svg>
